<?xml version="1.0" encoding="utf-8"?>
<!-- Generator: Adobe Illustrator 23.0.6, SVG Export Plug-In . SVG Version: 6.00 Build 0)  -->
<svg version="1.1" id="Capa_1" xmlns="http://www.w3.org/2000/svg" xmlns:xlink="http://www.w3.org/1999/xlink" x="0px" y="0px"
	 viewBox="0 0 512 512" style="enable-background:new 0 0 512 512;" xml:space="preserve">
<style type="text/css">
	.st0{fill:#E63B3B;}
</style>
<g>
	<g>
		<path class="st0" d="M489.8,233.8H75.7l98.8-98.8c8.7-8.7,8.7-22.7,0-31.3c-8.7-8.7-22.7-8.7-31.3,0L6.5,240.3
			c-8.7,8.7-8.7,22.7,0,31.3l136.7,136.7c4.3,4.3,10,6.5,15.7,6.5c5.7,0,11.3-2.2,15.7-6.5c8.7-8.7,8.7-22.7,0-31.3l-98.8-98.8
			h414.2c12.2,0,22.2-9.9,22.2-22.2C512,243.8,502.1,233.8,489.8,233.8z"/>
	</g>
</g>
</svg>
