<?xml version="1.0" encoding="utf-8"?>
<!-- Generator: Adobe Illustrator 23.0.6, SVG Export Plug-In . SVG Version: 6.00 Build 0)  -->
<svg version="1.1" id="Capa_1" xmlns="http://www.w3.org/2000/svg" xmlns:xlink="http://www.w3.org/1999/xlink" x="0px" y="0px"
	 viewBox="0 0 512 512" style="enable-background:new 0 0 512 512;" xml:space="preserve">
<style type="text/css">
	.st0{fill:#D6D6D6;stroke:#000000;stroke-width:5;stroke-miterlimit:10;}
</style>
<g>
	<g>
		<path class="st0" d="M255.5,5C116.8,5,4,117.8,4,256.5S116.8,508,255.5,508S507,395.2,507,256.5S394.2,5,255.5,5z M255.5,490
			C126.7,490,22,385.3,22,256.5S126.7,23,255.5,23S489,127.7,489,256.5S384.3,490,255.5,490z"/>
		<path class="st0" d="M363.3,148.7H147.7c-5,0-8.9,4-8.9,8.9s4,8.9,8.9,8.9h215.5c5,0,8.9-4,8.9-8.9S368.3,148.7,363.3,148.7z"/>
		<path class="st0" d="M363.3,247.6H147.7c-5,0-8.9,4-8.9,8.9s4,8.9,8.9,8.9h215.5c5,0,8.9-4,8.9-8.9
			C372.3,251.6,368.3,247.6,363.3,247.6z"/>
		<path class="st0" d="M363.3,346.3H147.7c-5,0-8.9,4-8.9,8.9s4,8.9,8.9,8.9h215.5c5,0,8.9-4,8.9-8.9S368.3,346.3,363.3,346.3z"/>
	</g>
</g>
</svg>
